<?xml version="1.0" encoding="utf-8"?>
<!-- Generator: Adobe Illustrator 21.1.0, SVG Export Plug-In . SVG Version: 6.00 Build 0)  -->
<svg version="1.1" id="Layer_1" xmlns="http://www.w3.org/2000/svg" xmlns:xlink="http://www.w3.org/1999/xlink" x="0px" y="0px"
	 viewBox="0 0 58.7 32.1" style="enable-background:new 0 0 58.7 32.1;" xml:space="preserve">
<style type="text/css">
	.st0{fill:#ED1C24;}
	.st1{fill:#253672;}
	.st2{fill:#E33F26;}
	.st3{fill:none;stroke:#253672;stroke-width:2;stroke-linecap:round;stroke-miterlimit:10;}
</style>
<g>
	<g>
		<g>
			<path class="st0" d="M3.9,31l-3.8-9.1C0.1,21.7,0,21.5,0,21.3C0,20.6,0.6,20,1.3,20c0.7,0,1.1,0.4,1.3,0.9l2.9,7.6l3-7.7
				C8.6,20.4,9.1,20,9.7,20c0.7,0,1.3,0.5,1.3,1.2c0,0.2-0.1,0.4-0.1,0.6L7,31c-0.3,0.6-0.8,1-1.5,1H5.4C4.7,32,4.2,31.6,3.9,31z"/>
			<path class="st0" d="M11.4,26L11.4,26c0-3.4,2.6-6.1,6.2-6.1s6.2,2.7,6.2,6v0c0,3.3-2.6,6.1-6.2,6.1S11.4,29.4,11.4,26z M21.2,26
				L21.2,26c0-2-1.5-3.7-3.5-3.7S14.1,24,14.1,26v0c0,2,1.5,3.7,3.5,3.7C19.7,29.7,21.2,28,21.2,26z"/>
			<path class="st0" d="M25.2,21.3c0-0.7,0.6-1.3,1.3-1.3c0.7,0,1.3,0.6,1.3,1.3v8.2h4.8c0.7,0,1.2,0.5,1.2,1.2
				c0,0.7-0.5,1.2-1.2,1.2h-6.1c-0.7,0-1.3-0.6-1.3-1.3V21.3z"/>
			<path class="st0" d="M35.2,22.5h-2.5c-0.7,0-1.2-0.5-1.2-1.2s0.5-1.2,1.2-1.2h7.5c0.7,0,1.2,0.5,1.2,1.2s-0.5,1.2-1.2,1.2h-2.5
				v8.1c0,0.7-0.6,1.3-1.3,1.3s-1.3-0.6-1.3-1.3V22.5z"/>
			<path class="st0" d="M43.1,21.3c0-0.7,0.6-1.3,1.3-1.3s1.3,0.6,1.3,1.3v9.3c0,0.7-0.6,1.3-1.3,1.3s-1.3-0.6-1.3-1.3V21.3z"/>
			<path class="st0" d="M48.1,26L48.1,26c0-3.4,2.5-6.1,6.1-6.1c1.8,0,2.9,0.5,3.9,1.2c0.3,0.2,0.5,0.6,0.5,1c0,0.7-0.6,1.3-1.3,1.3
				c-0.4,0-0.6-0.1-0.8-0.3c-0.7-0.5-1.5-0.8-2.4-0.8c-2,0-3.4,1.6-3.4,3.6v0c0,2,1.4,3.7,3.4,3.7c1.1,0,1.8-0.3,2.5-0.9
				c0.2-0.2,0.5-0.3,0.8-0.3c0.7,0,1.2,0.5,1.2,1.2c0,0.4-0.2,0.7-0.4,0.9c-1.1,0.9-2.3,1.5-4.2,1.5C50.7,32.1,48.1,29.4,48.1,26z"
				/>
		</g>
	</g>
	<g>
		<path class="st1" d="M18.2,11.8H32c0.5,0,1-0.4,1-1c0-0.5-0.4-1-1-1H18.2c-0.5,0-1,0.4-1,1C17.2,11.3,17.7,11.8,18.2,11.8z"/>
	</g>
	<g>
		<path class="st2" d="M8.6,5.2h13.8c0.5,0,1-0.4,1-1s-0.4-1-1-1H8.6c-0.5,0-1,0.4-1,1S8,5.2,8.6,5.2z"/>
	</g>
	<g>
		<path class="st1" d="M10.9,16.3H32c0.5,0,1-0.4,1-1s-0.4-1-1-1H10.9c-0.5,0-1,0.4-1,1S10.3,16.3,10.9,16.3z"/>
	</g>
	<g>
		<circle class="st2" cx="14.6" cy="10.8" r="0.9"/>
	</g>
	<g>
		<path class="st3" d="M38.8,7.9"/>
	</g>
	<g>
		<path class="st1" d="M36.6,6.3c0.5,0,1,0.4,1,1v7.4c0,1.2,1,2.2,2.2,2.2h5.3c0.5,0,1,0.4,1,1v0c0,0.5-0.4,1-1,1h-5.3
			c-2.3,0-4.1-1.8-4.1-4.1V7.3C35.7,6.8,36.1,6.3,36.6,6.3z"/>
	</g>
	<g>
		<path class="st1" d="M33.5,16.3v-12c0-1.3,1.1-2.4,2.4-2.4h7.1c0.5,0,1-0.4,1-1s-0.4-1-1-1H36c-2.4,0-4.3,1.9-4.3,4.3v12H33.5z"/>
	</g>
	<g>
		<path class="st1" d="M32.6,8.3h4.1c0.5,0,1-0.4,1-1s-0.4-1-1-1h-4.1c-0.5,0-1,0.4-1,1S32,8.3,32.6,8.3z"/>
	</g>
	<g>
		<path class="st2" d="M39.7,5.2h3.4c0.5,0,1-0.4,1-1s-0.4-1-1-1h-3.4c-0.5,0-1,0.4-1,1S39.2,5.2,39.7,5.2z"/>
	</g>
	<g>
		<path class="st2" d="M39.7,6.3h5.4c0.5,0,1,0.4,1,1v0c0,0.5-0.4,1-1,1h-5.4c-0.5,0-1-0.4-1-1C38.7,6.8,39.2,6.3,39.7,6.3z"/>
	</g>
</g>
</svg>
